<svg width="44" height="46" viewBox="0 0 44 46" fill="none" xmlns="http://www.w3.org/2000/svg">
<path fill-rule="evenodd" clip-rule="evenodd" d="M20.9085 0.236474C11.3488 1.99112 3.68768 8.34249 0.950833 16.7823C-0.726766 21.9555 -0.160126 27.7267 2.45804 32.1305C4.17321 35.0158 5.92639 36.8118 8.97462 38.8063C11.7855 40.6455 13.1853 40.8645 14.7184 39.7048C15.6196 39.0228 16.5991 37.1308 16.5991 36.0714C16.5991 35.1964 15.9518 34.4616 14.214 33.3641C12.7882 32.4635 10.783 30.3728 9.88027 28.845C8.50831 26.5233 8.11715 25.1018 8.12864 22.4814C8.1377 20.4321 8.21483 19.9876 8.83362 18.4263C10.197 14.9852 13.0229 12.1126 16.8859 10.2407C19.3991 9.02286 21.6924 8.45318 24.6655 8.30807C29.8287 8.05578 34.0078 9.93164 35.3919 13.1229C36.0504 14.6417 35.9561 17.5274 35.2 18.9743C34.425 20.4578 32.6433 22.1407 31.0977 22.8494L29.7485 23.4677L22.6765 23.5773C17.4629 23.6582 15.6046 23.7547 15.6046 23.9449C15.6046 24.2709 29.1138 39.4137 33.4427 43.94L35.4129 46L38.216 45.8705C42.1356 45.6892 44.0073 45.043 44 43.8736C43.9982 43.6066 43.1997 42.5431 42.0912 41.332C37.3999 36.206 31.7211 29.5484 31.8937 29.377C31.9534 29.318 32.5889 29.1223 33.3063 28.9421C35.6756 28.3468 38.1818 26.9564 39.7849 25.3478C43.6656 21.4538 44.8913 16.3428 43.2104 11.0649C41.5454 5.83754 36.5687 1.87276 29.859 0.42805C27.6432 -0.0489165 23.0047 -0.148211 20.9085 0.236474Z" fill="url(#paint0_linear_34_43)"/>
<defs>
<linearGradient id="paint0_linear_34_43" x1="5.44808" y1="50.6756" x2="32.2281" y2="5.63186" gradientUnits="userSpaceOnUse">
<stop stop-color="#BF00FF"/>
<stop offset="0.552899" stop-color="#6067E0"/>
<stop offset="0.834313" stop-color="#C1C1C1"/>
</linearGradient>
</defs>
</svg>
