<svg width="23" height="27" viewBox="0 0 23 27" fill="none" xmlns="http://www.w3.org/2000/svg">
<path fill-rule="evenodd" clip-rule="evenodd" d="M8.41263 0.153037C7.68339 0.459159 7.19547 0.94821 6.89663 1.67225L6.73458 2.06484L6.73296 8.24675L6.73126 14.4286L6.27299 14.0013C5.78923 13.5502 5.07072 13.1609 4.43741 13.0069C3.82611 12.8582 2.819 12.9024 2.17108 13.1064C0.806269 13.5362 0.0234643 14.4091 0.000455125 15.5268C-0.00483839 15.7846 0.0366627 16.1538 0.0927034 16.3473C0.249039 16.8876 4.63913 23.4199 5.35721 24.1809C6.70148 25.6053 8.45921 26.5511 10.407 26.8981C10.9784 27 11.4265 27.0141 13.3008 26.9895C15.4576 26.9612 15.5388 26.955 16.2596 26.764C19.6744 25.8588 22.1374 23.3019 22.871 19.9003C22.9854 19.3701 23 18.9354 23 16.0659V12.8294L22.776 12.358C22.215 11.1777 20.8678 10.5196 19.6729 10.8424L19.3103 10.9403L19.1546 10.5659C18.9303 10.0266 18.4579 9.53604 17.8978 9.26101C17.4922 9.06176 17.3407 9.02694 16.7903 9.00639C16.2776 8.98726 16.0782 9.01083 15.7722 9.1267L15.3918 9.27079L15.0207 8.89488C14.5064 8.37403 13.9797 8.13495 13.2592 8.09548C12.9481 8.07846 12.5762 8.09682 12.4325 8.13636L12.1714 8.20819L12.151 5.0662L12.1306 1.92413L11.9309 1.51852C11.6683 0.985077 11.1725 0.487724 10.6494 0.232751C10.2827 0.0541146 10.1332 0.024002 9.5201 0.00577956C8.90457 -0.0125132 8.76164 0.00648328 8.41263 0.153037Z" fill="url(#paint0_linear_82_6)"/>
<defs>
<linearGradient id="paint0_linear_82_6" x1="11.5" y1="0" x2="11.5" y2="27" gradientUnits="userSpaceOnUse">
<stop offset="0.0048148" stop-color="white"/>
<stop offset="0.548091" stop-color="#603BFF"/>
<stop offset="1" stop-color="#0026FF"/>
</linearGradient>
</defs>
</svg>
